<svg width="12" height="9" viewBox="0 0 12 9" fill="none" xmlns="http://www.w3.org/2000/svg">
<path fill-rule="evenodd" clip-rule="evenodd" d="M1.52672 2.42856H10.9731C11.5402 2.42856 12 1.96884 12 1.40178C12 0.834718 11.5402 0.375 10.9731 0.375H1.52672C0.959657 0.375046 0.499939 0.834718 0.499939 1.40183C0.499939 1.96889 0.959657 2.42856 1.52672 2.42856ZM10.9731 3.66072H1.52672C0.959657 3.66072 0.499939 4.12044 0.499939 4.6875C0.499939 5.25461 0.959657 5.71428 1.52672 5.71428H10.9731C11.5402 5.71428 12 5.25461 12 4.6875C12 4.12044 11.5402 3.66072 10.9731 3.66072ZM10.9731 6.94644H1.52672C0.959657 6.94644 0.499939 7.40611 0.499939 7.97322C0.499939 8.54028 0.959657 9 1.52672 9H10.9731C11.5402 9 12 8.54028 12 7.97322C12 7.40611 11.5402 6.94644 10.9731 6.94644Z" fill="white"/>
</svg>
