<svg width="45" height="45" viewBox="0 0 45 45" fill="none" xmlns="http://www.w3.org/2000/svg">
<path fill-rule="evenodd" clip-rule="evenodd" d="M4.01783 13.6607H40.982C43.2009 13.6607 45 11.8618 45 9.64283C45 7.42389 43.2011 5.625 40.982 5.625H4.01783C1.79889 5.62518 0 7.42389 0 9.64301C0 11.862 1.79889 13.6607 4.01783 13.6607ZM40.982 18.4821H4.01783C1.79889 18.4821 0 20.281 0 22.5C0 24.7191 1.79889 26.5178 4.01783 26.5178H40.982C43.2009 26.5178 45 24.7191 45 22.5C45 20.281 43.2009 18.4821 40.982 18.4821ZM40.982 31.3393H4.01783C1.79889 31.3393 0 33.138 0 35.3571C0 37.5761 1.79889 39.375 4.01783 39.375H40.982C43.2009 39.375 45 37.5761 45 35.3571C45 33.138 43.2009 31.3393 40.982 31.3393Z" fill="#767676"/>
</svg>
