<svg width="17" height="20" viewBox="0 0 17 20" fill="none" xmlns="http://www.w3.org/2000/svg">
<path d="M16.1238 20.0002H0.863994C0.635375 20.0002 0.416074 19.9098 0.254131 19.7488C0.0921879 19.5879 0.000804998 19.3695 0 19.1415L0 16.0224C0 14.252 0.705144 12.5541 1.96031 11.3023C3.21547 10.0504 4.91784 9.34717 6.69291 9.34717H10.3071C12.0822 9.34717 13.7845 10.0504 15.0397 11.3023C16.2949 12.5541 17 14.252 17 16.0224V19.1415C16.9996 19.2554 16.9766 19.3681 16.9322 19.4731C16.8879 19.5781 16.8231 19.6733 16.7416 19.7532C16.6601 19.833 16.5635 19.896 16.4575 19.9384C16.3515 19.9808 16.2381 20.0018 16.1238 20.0002V20.0002ZM1.72799 18.295H15.272V16.0224C15.2712 14.709 14.748 13.4497 13.8171 12.5207C12.8863 11.5918 11.6239 11.0692 10.3071 11.0675H6.69291C5.3761 11.0692 4.11373 11.5918 3.18289 12.5207C2.25204 13.4497 1.72879 14.709 1.72799 16.0224V18.295Z" fill="white"/>
<path d="M8.54871 10.6791C7.58406 10.6821 6.64027 10.3991 5.83716 9.86614C5.03404 9.33318 4.40781 8.57424 4.03797 7.68566C3.66813 6.79708 3.57135 5.81893 3.75993 4.8754C3.9485 3.93186 4.41392 3.06548 5.09711 2.38625C5.78029 1.70701 6.65042 1.24555 7.59705 1.06043C8.54368 0.875323 9.52412 0.974914 10.4139 1.34656C11.3037 1.71821 12.0627 2.34516 12.5945 3.14782C13.1264 3.95048 13.4071 4.89265 13.4011 5.85473C13.3931 7.13438 12.8788 8.35912 11.9701 9.26257C11.0614 10.166 9.83178 10.6751 8.54871 10.6791V10.6791ZM8.54871 2.72346C7.93068 2.72346 7.32651 2.90609 6.81248 3.2483C6.29845 3.5905 5.89759 4.07692 5.66053 4.64616C5.42347 5.2154 5.36083 5.84193 5.48052 6.44665C5.60021 7.05137 5.89686 7.60717 6.33302 8.04386C6.76919 8.48056 7.3253 8.77858 7.93115 8.9003C8.53701 9.02202 9.16544 8.96198 9.73711 8.72776C10.3088 8.49354 10.7981 8.09564 11.1432 7.5843C11.4883 7.07297 11.6737 6.47111 11.6761 5.85473C11.6773 5.44421 11.5973 5.03748 11.4407 4.65783C11.2842 4.27818 11.054 3.93305 10.7635 3.64221C10.4731 3.35136 10.1279 3.12051 9.74786 2.96286C9.36781 2.80521 8.96032 2.72386 8.54871 2.72346V2.72346Z" fill="white"/>
</svg>
