<svg width="53" height="53" viewBox="0 0 53 53" fill="none" xmlns="http://www.w3.org/2000/svg">
<circle cx="26.5" cy="26.5" r="26.5" fill="#2678D9"/>
<g clip-path="url(#clip0_147_9)">
<path d="M42.5564 15.4001C42.2091 15.0019 41.7091 14.7728 41.1818 14.7728H16.0564L15.7018 12.6565C15.5564 11.7801 14.7982 11.1365 13.9091 11.1365H9.81818C8.81273 11.1365 8 11.9492 8 12.9547C8 13.9601 8.81273 14.7728 9.81818 14.7728H12.3691L15.7509 35.071C15.7655 35.1528 15.8073 35.2201 15.8327 35.2965C15.8618 35.3928 15.8855 35.4837 15.9309 35.571C15.9891 35.691 16.0673 35.7928 16.1491 35.8965C16.2055 35.9674 16.2564 36.0383 16.3218 36.1001C16.4273 36.1983 16.5491 36.2674 16.6727 36.3365C16.7418 36.3746 16.8018 36.4256 16.8764 36.4547C17.0873 36.5401 17.3091 36.591 17.5436 36.591C17.5455 36.591 37.5455 36.591 37.5455 36.591C38.5509 36.591 39.3636 35.7783 39.3636 34.7728C39.3636 33.7674 38.5509 32.9547 37.5455 32.9547H19.0855L18.7836 31.1365H39.3636C40.2691 31.1365 41.0364 30.471 41.1636 29.5765L42.9818 16.8492C43.0564 16.3256 42.9 15.7965 42.5564 15.4001ZM39.0855 18.4092L38.5673 22.0456H32.0909V18.4092H39.0855ZM30.2727 18.4092V22.0456H24.8182V18.4092H30.2727ZM30.2727 23.8637V27.5001H24.8182V23.8637H30.2727ZM23 18.4092V22.0456H17.5455C17.4491 22.0456 17.3618 22.0728 17.2764 22.1001L16.6618 18.4092H23ZM17.5709 23.8637H23V27.5001H18.1764L17.5709 23.8637ZM32.0909 27.5001V23.8637H38.3055L37.7873 27.5001H32.0909Z" fill="white"/>
<path d="M20.2727 43.8637C21.779 43.8637 23 42.6427 23 41.1365C23 39.6302 21.779 38.4092 20.2727 38.4092C18.7665 38.4092 17.5455 39.6302 17.5455 41.1365C17.5455 42.6427 18.7665 43.8637 20.2727 43.8637Z" fill="white"/>
<path d="M36.6364 43.8637C38.1426 43.8637 39.3636 42.6427 39.3636 41.1365C39.3636 39.6302 38.1426 38.4092 36.6364 38.4092C35.1301 38.4092 33.9091 39.6302 33.9091 41.1365C33.9091 42.6427 35.1301 43.8637 36.6364 43.8637Z" fill="white"/>
</g>
<defs>
<clipPath id="clip0_147_9">
<rect width="35" height="35" fill="white" transform="translate(8 10)"/>
</clipPath>
</defs>
</svg>
