<svg width="187" height="60" viewBox="0 0 187 60" fill="none" xmlns="http://www.w3.org/2000/svg">
<path d="M139.05 0.472015C136.379 1.50573 135.156 3.64056 135.156 7.30348V9.43831H133.232H131.308V11.9102V14.3821H133.232H135.156V24.8316V35.281H138.665H142.174V24.8316V14.3821H144.325H146.476V11.9102V9.43831H144.325H142.174V8.11247C142.174 6.15741 142.537 5.82033 144.733 5.66303L146.476 5.55067V2.78662V0.000106812L143.374 0.0225792C140.793 0.0225792 140.046 0.112465 139.05 0.472015Z" fill="white"/>
<path d="M149.192 3.25842V6.51685H152.702H156.211V3.25842V-9.05991e-06H152.702H149.192V3.25842Z" fill="white"/>
<path d="M63.3898 17.7304V35.281H72.1738C81.6823 35.281 82.6332 35.1911 84.965 34.0226C88.7458 32.1349 91.1002 28.9215 92.5265 23.6855C93.0698 21.663 93.1378 21.1012 93.1378 17.1911C93.1604 12.4945 92.934 11.2361 91.6889 8.2473C90.4437 5.30348 87.9534 2.62932 85.3952 1.55067C82.8143 0.449543 82.3389 0.404602 72.6266 0.29224L63.3898 0.179882V17.7304ZM80.9805 7.16865C84.0594 8.51696 85.5763 11.9327 85.5763 17.4158C85.5763 23.0563 83.8557 26.9215 80.6409 28.472C79.4184 29.0563 79.2146 29.0788 75.1169 29.1686L70.8608 29.2585V17.8653V6.47202L75.3433 6.5619C79.4184 6.62932 79.8938 6.67426 80.9805 7.16865Z" fill="white"/>
<path d="M121.799 17.7529V35.281H125.308H128.817V17.7529V0.224823H125.308H121.799V17.7529Z" fill="white"/>
<path d="M0 28.764V57.0786H28.299H56.5981V28.764V0.449409H28.299H0V28.764ZM51.2778 7.43817C30.9705 12.8314 13.7194 26.0449 3.16949 44.2921L1.58475 47.0561V41.146V35.2359L2.4224 33.8427C3.53172 31.9775 5.50133 29.191 6.95024 27.3708C8.0822 25.9326 8.15012 25.7977 8.15012 24.5618C8.15012 21.5505 6.95024 17.8427 5.20702 15.4606C4.84479 14.9663 4.59576 14.4719 4.66368 14.3595C4.91271 13.955 6.31634 14.1797 10.7536 15.3033C14.1042 16.1573 15.8701 16.4719 17.5454 16.5618L19.8093 16.6741L21.6431 15.5505C30.1781 10.2921 41.9052 6.8539 51.5042 6.78649H53.7682L51.2778 7.43817ZM13.0402 40.809C14.8966 41.6179 17.1605 42.4943 18.0887 42.7191L19.764 43.146L21.8695 42.3595C24.6088 41.3258 28.8877 40.3146 32.1024 39.8876C35.3398 39.4606 41.0449 39.4606 44.237 39.8876C46.8858 40.2472 47.5424 40.4494 45.935 40.4494C45.369 40.4494 43.6711 40.6067 42.1316 40.7865C30.3818 42.2472 19.2207 47.0561 10.6178 54.4269L9.32736 55.5056H6.13523C4.39201 55.5056 2.9431 55.4157 2.9431 55.3258C2.9431 55.0112 6.22579 51.5056 7.96901 49.955C8.87458 49.146 9.71223 48.337 9.84806 48.1123C9.96126 47.9101 10.0745 46.6292 10.0518 45.2809C10.0518 42.764 10.0292 42.6516 8.67082 39.5955C8.39915 38.9887 9.80278 39.3708 13.0402 40.809Z" fill="#F3B714"/>
<path d="M103.529 9.07867C99.7031 10 96.9864 12.6292 95.6054 16.6967C95.0395 18.382 94.9942 18.8315 94.9942 22.1349C94.9715 25.236 95.0621 25.9775 95.5149 27.5731C97.1223 33.2135 101.084 35.9326 107.65 35.9551C111.543 35.9551 114.215 34.9888 116.501 32.7191C117.792 31.4158 118.879 29.6405 119.218 28.2472L119.354 27.6405H115.709C113.626 27.6405 112.064 27.7304 112.064 27.8427C112.064 27.9551 111.792 28.382 111.453 28.7865C109.461 31.1236 104.865 30.7641 103.076 28.1124C102.578 27.3933 102.329 26.6742 101.99 24.9888L101.831 24.2697H110.842H119.829L119.671 21.7753C119.377 17.3034 118.358 14.427 116.23 12.1573C114.894 10.7191 113.038 9.618 111.045 9.10114C109.415 8.69665 105.227 8.67418 103.529 9.07867ZM109.461 14.9888C110.91 15.7079 111.838 17.0113 112.268 18.854L112.472 19.7753H107.287C104.435 19.7753 102.103 19.6854 102.103 19.5955C102.103 19.0337 102.827 17.1461 103.325 16.382C104.548 14.5843 107.355 13.9326 109.461 14.9888Z" fill="white"/>
<path d="M173.824 9.19112C172.171 9.84281 171.198 10.5394 170.224 11.7304L169.341 12.854V11.1462V9.43831H165.946H162.55V22.3597V35.281H166.059H169.568V28.0226C169.568 18.899 169.749 17.6181 171.288 16.09C172.194 15.2136 173.054 14.8091 174.435 14.6743C176.428 14.472 177.944 15.1911 178.805 16.7417C179.144 17.326 179.189 18.5394 179.257 26.3372L179.325 35.281H182.834H186.343L186.276 25.1012C186.208 15.6406 186.185 14.8765 185.777 13.9327C184.691 11.4383 183.061 9.93269 180.638 9.19112C178.782 8.60685 175.318 8.62932 173.824 9.19112Z" fill="white"/>
<path d="M149.192 22.3597V35.281H152.702H156.211V22.3597V9.43831H152.702H149.192V22.3597Z" fill="white"/>
<path d="M101.65 45.7753V47.9326L101.084 47.4157C100.405 46.7865 98.2995 46.5393 97.0544 46.9438C96.013 47.3034 94.9489 48.4944 94.6093 49.7079C94.2018 51.2135 94.4508 53.8877 95.0847 55.0113C95.8998 56.427 96.8959 56.9663 98.7523 56.9663C99.9522 56.9663 100.382 56.8764 100.948 56.4495C101.514 56.045 101.65 56.0225 101.65 56.2922C101.65 56.5393 101.899 56.6292 102.556 56.6292H103.461V50.1124V43.5955H102.556H101.65V45.7753ZM100.382 48.5618C101.311 49.2809 101.718 50.2697 101.718 51.7978C101.718 54.2023 100.767 55.5056 99.0466 55.5056C97.2808 55.5056 96.3525 54.2697 96.3525 51.9101C96.3525 49.4832 97.326 48.1124 99.0693 48.0899C99.4541 48.0899 100.043 48.2921 100.382 48.5618Z" fill="white"/>
<path d="M150.777 45.618V46.9664H149.872C149.011 46.9664 148.966 47.0113 148.966 47.6405C148.966 48.2697 149.011 48.3147 149.872 48.3147H150.777V52.1349C150.777 55.663 150.823 56.0001 151.23 56.4046C151.57 56.7416 151.977 56.854 152.792 56.854C154.332 56.854 154.626 56.6967 154.626 55.9102C154.626 55.2585 154.581 55.236 153.924 55.3709C152.679 55.618 152.588 55.3709 152.588 51.663V48.3147H153.607C154.581 48.3147 154.626 48.2922 154.626 47.6405C154.626 46.9888 154.581 46.9664 153.607 46.9664H152.588V45.618V44.2697H151.683H150.777V45.618Z" fill="white"/>
<path d="M79.192 47.2584C78.1732 47.7752 78.1053 47.7752 78.1053 47.3932C78.1053 47.0561 77.9242 46.9662 77.1998 46.9662H76.2942V51.7977V56.6292H77.1998H78.1053V53.5954C78.1053 50.2921 78.3317 49.3258 79.2599 48.6741C80.0297 48.1348 81.388 48.2022 81.954 48.8089C82.3615 49.2584 82.4068 49.5954 82.4068 52.9662V56.6292H83.4255H84.4443L84.4217 52.9662C84.4217 48.9662 84.2179 48.0449 83.2671 47.3482C82.2936 46.6291 80.4824 46.5842 79.192 47.2584Z" fill="white"/>
<path d="M134.364 46.9888C133.028 47.3933 132.439 48.2023 132.439 49.618C132.439 51.1911 133.164 51.7754 136.062 52.472C137.692 52.8765 138.326 53.3259 138.326 54.0225C138.303 55.8428 134.885 56.045 134.069 54.2922C133.843 53.7978 133.662 53.7079 132.87 53.7079C131.964 53.7079 131.941 53.7304 132.1 54.3371C132.507 56.0001 133.911 56.8315 136.266 56.854C139.322 56.854 140.929 55.1686 140.114 52.8315C139.82 51.9776 138.801 51.4158 136.877 51.0113C134.59 50.5394 134.024 50.09 134.364 49.0113C134.726 47.8652 137.533 47.9327 138.054 49.1012C138.258 49.5506 138.484 49.663 139.118 49.663C139.797 49.663 139.91 49.5956 139.91 49.1237C139.91 48.3371 138.892 47.236 137.918 46.9664C136.922 46.6967 135.292 46.6967 134.364 46.9888Z" fill="white"/>
<path d="M63.8426 51.7977V56.6292H64.7482H65.6538V51.7977V46.9662H64.7482H63.8426V51.7977Z" fill="white"/>
<path d="M114.102 50.899C114.102 55.281 114.26 55.8877 115.46 56.5169C116.728 57.1686 119.082 56.8316 120.056 55.8653C120.418 55.5057 120.441 55.5057 120.441 56.045C120.441 56.5844 120.531 56.6293 121.346 56.6293H122.252V51.7978V46.9664H121.233H120.214V50.2698C120.214 53.1911 120.169 53.6855 119.762 54.3372C119.218 55.1911 118.403 55.4608 117.09 55.2136C116.094 55.0113 115.913 54.3147 115.913 50.4495V46.9664H115.007H114.102V50.899Z" fill="white"/>
<path d="M164.134 51.7977V56.6292H165.04H165.946V54.0898C165.946 51.146 166.195 50.0449 167.077 49.1685C167.576 48.6741 167.938 48.5393 168.64 48.5393C169.545 48.5393 169.568 48.5168 169.568 47.7527C169.568 47.0112 169.523 46.9662 168.753 46.9662C167.87 46.9662 167.236 47.2359 166.466 47.9325L165.946 48.382V47.6853C165.946 46.9887 165.9 46.9662 165.04 46.9662H164.134V51.7977Z" fill="white"/>
<path d="M177.718 47.0337C177.718 47.0787 178.646 49.236 179.778 51.7978C181.906 56.6742 181.974 56.9663 181.204 58.1348C180.978 58.5169 180.661 58.6517 180.095 58.6517C179.371 58.6517 179.303 58.6966 179.303 59.3258C179.303 60 179.303 60 180.616 60C181.725 60 182.019 59.9101 182.45 59.4607C182.902 58.9663 187 48.0225 187 47.2809C187 47.0787 186.728 46.9663 186.14 46.9663H185.302L184.08 50.5843C183.423 52.5618 182.857 54.1573 182.812 54.1124C182.766 54.0674 182.11 52.4494 181.34 50.4944L179.959 46.9663H178.827C178.216 46.9663 177.718 47.0112 177.718 47.0337Z" fill="white"/>
</svg>
