<svg width="187" height="60" viewBox="0 0 187 60" fill="none" xmlns="http://www.w3.org/2000/svg">
<path d="M139.05 0.471893C136.379 1.5056 135.156 3.64043 135.156 7.30336V9.43819H133.232H131.307V11.9101V14.382H133.232H135.156V24.8314V35.2809H138.665H142.174V24.8314V14.382H144.325H146.476V11.9101V9.43819H144.325H142.174V8.11234C142.174 6.15729 142.537 5.82021 144.733 5.66291L146.476 5.55055V2.7865V-1.52588e-05L143.374 0.0224571C140.793 0.0224571 140.046 0.112343 139.05 0.471893Z" fill="white"/>
<path d="M149.193 3.25842V6.51685H152.702H156.211V3.25842V-9.05991e-06H152.702H149.193V3.25842Z" fill="white"/>
<path d="M63.3899 17.7303V35.2809H72.1739C81.6824 35.2809 82.6332 35.191 84.9651 34.0225C88.7458 32.1348 91.1003 28.9213 92.5266 23.6854C93.0699 21.6629 93.1378 21.1011 93.1378 17.191C93.1605 12.4944 92.9341 11.2359 91.6889 8.24718C90.4438 5.30336 87.9534 2.6292 85.3952 1.55054C82.8143 0.449421 82.3389 0.40448 72.6267 0.292118L63.3899 0.17976V17.7303ZM80.9806 7.16852C84.0595 8.51684 85.5763 11.9326 85.5763 17.4157C85.5763 23.0562 83.8557 26.9213 80.641 28.4719C79.4185 29.0562 79.2147 29.0786 75.117 29.1685L70.8608 29.2584V17.8652V6.4719L75.3434 6.56178C79.4185 6.6292 79.8939 6.67414 80.9806 7.16852Z" fill="white"/>
<path d="M121.799 17.7528V35.2809H125.308H128.817V17.7528V0.224701H125.308H121.799V17.7528Z" fill="white"/>
<path d="M0 28.764V57.0786H28.299H56.5981V28.764V0.449409H28.299H0V28.764ZM51.2778 7.43817C30.9705 12.8314 13.7194 26.0449 3.16949 44.2921L1.58475 47.0561V41.146V35.2359L2.4224 33.8427C3.53172 31.9775 5.50133 29.191 6.95024 27.3708C8.0822 25.9326 8.15012 25.7977 8.15012 24.5618C8.15012 21.5505 6.95024 17.8427 5.20702 15.4606C4.84479 14.9663 4.59576 14.4719 4.66368 14.3595C4.91271 13.955 6.31634 14.1797 10.7536 15.3033C14.1042 16.1573 15.8701 16.4719 17.5454 16.5618L19.8093 16.6741L21.6431 15.5505C30.1781 10.2921 41.9052 6.8539 51.5042 6.78649H53.7682L51.2778 7.43817ZM13.0402 40.809C14.8966 41.6179 17.1605 42.4943 18.0887 42.7191L19.764 43.146L21.8695 42.3595C24.6088 41.3258 28.8877 40.3146 32.1024 39.8876C35.3398 39.4606 41.0449 39.4606 44.237 39.8876C46.8858 40.2472 47.5424 40.4494 45.935 40.4494C45.369 40.4494 43.6711 40.6067 42.1316 40.7865C30.3818 42.2472 19.2207 47.0561 10.6178 54.4269L9.32736 55.5056H6.13523C4.39201 55.5056 2.9431 55.4157 2.9431 55.3258C2.9431 55.0112 6.22579 51.5056 7.96901 49.955C8.87458 49.146 9.71223 48.337 9.84806 48.1123C9.96126 47.9101 10.0745 46.6292 10.0518 45.2809C10.0518 42.764 10.0292 42.6516 8.67082 39.5955C8.39915 38.9887 9.80278 39.3708 13.0402 40.809Z" fill="#01A9D8"/>
<path d="M103.529 9.07867C99.7031 10 96.9864 12.6292 95.6054 16.6967C95.0394 18.382 94.9941 18.8315 94.9941 22.1349C94.9715 25.236 95.0621 25.9775 95.5148 27.5731C97.1222 33.2135 101.084 35.9326 107.649 35.9551C111.543 35.9551 114.215 34.9888 116.501 32.7191C117.792 31.4158 118.879 29.6405 119.218 28.2472L119.354 27.6405H115.709C113.626 27.6405 112.064 27.7304 112.064 27.8427C112.064 27.9551 111.792 28.382 111.453 28.7865C109.461 31.1236 104.865 30.7641 103.076 28.1124C102.578 27.3933 102.329 26.6742 101.99 24.9888L101.831 24.2697H110.842H119.829L119.671 21.7753C119.377 17.3034 118.358 14.427 116.23 12.1573C114.894 10.7191 113.038 9.618 111.045 9.10114C109.415 8.69665 105.227 8.67418 103.529 9.07867ZM109.461 14.9888C110.91 15.7079 111.838 17.0113 112.268 18.854L112.472 19.7753H107.287C104.435 19.7753 102.103 19.6854 102.103 19.5955C102.103 19.0337 102.827 17.1461 103.325 16.382C104.548 14.5843 107.355 13.9326 109.461 14.9888Z" fill="white"/>
<path d="M173.824 9.191C172.171 9.84268 171.198 10.5393 170.224 11.7303L169.341 12.8539V11.1461V9.43819H165.946H162.55V22.3595V35.2809H166.059H169.568V28.0225C169.568 18.8989 169.749 17.618 171.288 16.0899C172.194 15.2135 173.054 14.809 174.435 14.6741C176.428 14.4719 177.944 15.191 178.805 16.7416C179.144 17.3258 179.19 18.5393 179.257 26.3371L179.325 35.2809H182.834H186.343L186.276 25.1011C186.208 15.6404 186.185 14.8764 185.778 13.9326C184.691 11.4382 183.061 9.93257 180.638 9.191C178.782 8.60673 175.318 8.6292 173.824 9.191Z" fill="white"/>
<path d="M149.193 22.3595V35.2809H152.702H156.211V22.3595V9.43819H152.702H149.193V22.3595Z" fill="white"/>
<path d="M101.65 45.7753V47.9326L101.084 47.4157C100.405 46.7865 98.2996 46.5393 97.0544 46.9438C96.013 47.3034 94.949 48.4944 94.6094 49.7079C94.2019 51.2135 94.4509 53.8877 95.0848 55.0113C95.8998 56.427 96.8959 56.9663 98.7524 56.9663C99.9522 56.9663 100.382 56.8764 100.948 56.4495C101.514 56.045 101.65 56.0225 101.65 56.2922C101.65 56.5393 101.899 56.6292 102.556 56.6292H103.461V50.1124V43.5955H102.556H101.65V45.7753ZM100.382 48.5618C101.311 49.2809 101.718 50.2697 101.718 51.7978C101.718 54.2023 100.767 55.5056 99.0467 55.5056C97.2808 55.5056 96.3526 54.2697 96.3526 51.9101C96.3526 49.4832 97.3261 48.1124 99.0693 48.0899C99.4542 48.0899 100.043 48.2921 100.382 48.5618Z" fill="white"/>
<path d="M150.777 45.618V46.9663H149.872C149.011 46.9663 148.966 47.0112 148.966 47.6405C148.966 48.2697 149.011 48.3146 149.872 48.3146H150.777V52.1348C150.777 55.6629 150.822 56 151.23 56.4045C151.57 56.7416 151.977 56.8539 152.792 56.8539C154.332 56.8539 154.626 56.6966 154.626 55.9101C154.626 55.2584 154.581 55.236 153.924 55.3708C152.679 55.618 152.588 55.3708 152.588 51.6629V48.3146H153.607C154.581 48.3146 154.626 48.2921 154.626 47.6405C154.626 46.9888 154.581 46.9663 153.607 46.9663H152.588V45.618V44.2697H151.683H150.777V45.618Z" fill="white"/>
<path d="M79.192 47.2584C78.1732 47.7753 78.1053 47.7753 78.1053 47.3933C78.1053 47.0562 77.9242 46.9663 77.1998 46.9663H76.2942V51.7977V56.6292H77.1998H78.1053V53.5955C78.1053 50.2921 78.3317 49.3258 79.2599 48.6742C80.0297 48.1348 81.388 48.2022 81.954 48.809C82.3615 49.2584 82.4068 49.5955 82.4068 52.9663V56.6292H83.4255H84.4443L84.4217 52.9663C84.4217 48.9663 84.2179 48.0449 83.2671 47.3483C82.2936 46.6292 80.4824 46.5843 79.192 47.2584Z" fill="white"/>
<path d="M134.364 46.9888C133.028 47.3933 132.439 48.2023 132.439 49.618C132.439 51.191 133.164 51.7753 136.062 52.4719C137.692 52.8764 138.326 53.3259 138.326 54.0225C138.303 55.8427 134.885 56.045 134.07 54.2921C133.843 53.7978 133.662 53.7079 132.87 53.7079C131.964 53.7079 131.941 53.7303 132.1 54.3371C132.507 56 133.911 56.8315 136.266 56.8539C139.322 56.8539 140.929 55.1685 140.114 52.8315C139.82 51.9775 138.801 51.4157 136.877 51.0112C134.59 50.5393 134.024 50.0899 134.364 49.0112C134.726 47.8652 137.533 47.9326 138.054 49.1011C138.258 49.5506 138.484 49.6629 139.118 49.6629C139.797 49.6629 139.91 49.5955 139.91 49.1236C139.91 48.3371 138.892 47.236 137.918 46.9663C136.922 46.6966 135.292 46.6966 134.364 46.9888Z" fill="white"/>
<path d="M63.8427 51.7978V56.6292H64.7482H65.6538V51.7978V46.9663H64.7482H63.8427V51.7978Z" fill="white"/>
<path d="M114.102 50.8989C114.102 55.2809 114.26 55.8877 115.46 56.5169C116.728 57.1686 119.082 56.8315 120.056 55.8652C120.418 55.5056 120.441 55.5056 120.441 56.045C120.441 56.5843 120.531 56.6292 121.346 56.6292H122.252V51.7978V46.9663H121.233H120.214V50.2697C120.214 53.191 120.169 53.6854 119.761 54.3371C119.218 55.191 118.403 55.4607 117.09 55.2135C116.094 55.0113 115.913 54.3146 115.913 50.4495V46.9663H115.007H114.102V50.8989Z" fill="white"/>
<path d="M164.134 51.7978V56.6292H165.04H165.946V54.0899C165.946 51.1461 166.195 50.0449 167.077 49.1685C167.576 48.6742 167.938 48.5393 168.64 48.5393C169.545 48.5393 169.568 48.5169 169.568 47.7528C169.568 47.0112 169.523 46.9663 168.753 46.9663C167.87 46.9663 167.236 47.236 166.466 47.9326L165.946 48.382V47.6854C165.946 46.9888 165.9 46.9663 165.04 46.9663H164.134V51.7978Z" fill="white"/>
<path d="M177.718 47.0337C177.718 47.0787 178.646 49.236 179.778 51.7978C181.906 56.6742 181.974 56.9663 181.204 58.1348C180.978 58.5169 180.661 58.6517 180.095 58.6517C179.371 58.6517 179.303 58.6966 179.303 59.3258C179.303 60 179.303 60 180.616 60C181.725 60 182.019 59.9101 182.449 59.4607C182.902 58.9663 187 48.0225 187 47.2809C187 47.0787 186.728 46.9663 186.14 46.9663H185.302L184.08 50.5843C183.423 52.5618 182.857 54.1573 182.812 54.1124C182.766 54.0674 182.11 52.4494 181.34 50.4944L179.959 46.9663H178.827C178.216 46.9663 177.718 47.0112 177.718 47.0337Z" fill="white"/>
</svg>
