<svg width="48" height="48" viewBox="0 0 48 48" fill="none" xmlns="http://www.w3.org/2000/svg">
<g clip-path="url(#clip0_117_146)">
<path d="M47.3916 7.40587C46.9153 6.85979 46.2296 6.54561 45.5065 6.54561H11.0487L10.5625 3.64316C10.363 2.44129 9.32322 1.55859 8.1039 1.55859H2.49351C1.1146 1.55859 0 2.67319 0 4.0521C0 5.43101 1.1146 6.54561 2.49351 6.54561H5.9919L10.6298 34.3831C10.6498 34.4953 10.7071 34.5876 10.742 34.6923C10.7819 34.8245 10.8143 34.9491 10.8767 35.0688C10.9565 35.2334 11.0637 35.373 11.1759 35.5152C11.2532 35.6124 11.323 35.7097 11.4128 35.7944C11.5574 35.9291 11.7245 36.0238 11.894 36.1186C11.9888 36.1709 12.0711 36.2408 12.1733 36.2807C12.4625 36.3979 12.7668 36.4677 13.0884 36.4677C13.0909 36.4677 40.5195 36.4677 40.5195 36.4677C41.8984 36.4677 43.013 35.3531 43.013 33.9742C43.013 32.5953 41.8984 31.4807 40.5195 31.4807H15.2029L14.789 28.9872H43.013C44.2548 28.9872 45.307 28.0745 45.4816 26.8477L47.9751 9.39319C48.0773 8.67506 47.8629 7.94945 47.3916 7.40587ZM42.6315 11.5326L41.9208 16.5196H33.039V11.5326H42.6315ZM30.5455 11.5326V16.5196H23.0649V11.5326H30.5455ZM30.5455 19.0131V24.0001H23.0649V19.0131H30.5455ZM20.5714 11.5326V16.5196H13.0909C12.9588 16.5196 12.8391 16.557 12.7219 16.5944L11.8791 11.5326H20.5714ZM13.1258 19.0131H20.5714V24.0001H13.9562L13.1258 19.0131ZM33.039 24.0001V19.0131H41.5618L40.8511 24.0001H33.039Z" fill="#F3B714"/>
<path d="M16.8312 46.4419C18.8969 46.4419 20.5715 44.7674 20.5715 42.7017C20.5715 40.636 18.8969 38.9614 16.8312 38.9614C14.7655 38.9614 13.0909 40.636 13.0909 42.7017C13.0909 44.7674 14.7655 46.4419 16.8312 46.4419Z" fill="#F3B714"/>
<path d="M39.2727 46.4419C41.3384 46.4419 43.013 44.7674 43.013 42.7017C43.013 40.636 41.3384 38.9614 39.2727 38.9614C37.207 38.9614 35.5325 40.636 35.5325 42.7017C35.5325 44.7674 37.207 46.4419 39.2727 46.4419Z" fill="#F3B714"/>
</g>
<defs>
<clipPath id="clip0_117_146">
<rect width="48" height="48" fill="white"/>
</clipPath>
</defs>
</svg>
