<svg width="31" height="31" viewBox="0 0 31 31" fill="none" xmlns="http://www.w3.org/2000/svg">
<path d="M23.0585 20.616H13.3439C12.634 20.6208 11.9417 20.3929 11.3707 19.9664C10.7996 19.5399 10.3805 18.9378 10.1763 18.2503L5.51602 2.98213C5.43761 2.72443 5.2792 2.49912 5.06426 2.33958C4.84933 2.18004 4.58929 2.09477 4.32268 2.09638H1.03825C0.902142 2.09662 0.767323 2.06975 0.641487 2.0173C0.515651 1.96485 0.401262 1.88785 0.304852 1.79069C0.110144 1.59447 0.000485545 1.32807 1.60853e-06 1.05009C-0.000482328 0.772103 0.108248 0.50531 0.302272 0.3084C0.496296 0.11149 0.759722 0.00059179 1.0346 0.000102382H4.31903C5.02953 -0.00553764 5.72268 0.221983 6.29448 0.648526C6.86628 1.07507 7.28588 1.67763 7.49033 2.3658L8.44282 5.48807H26.6897C27.2408 5.4887 27.783 5.62802 28.2676 5.89347C28.7522 6.15892 29.1638 6.54215 29.4654 7.00862C29.767 7.47509 29.9491 8.01013 29.9952 8.5655C30.0413 9.12088 29.95 9.67913 29.7296 10.1899L26.0802 18.6083C25.8225 19.2026 25.3999 19.7087 24.8636 20.065C24.3273 20.4214 23.7003 20.6127 23.0585 20.616V20.616ZM9.08875 7.58435L12.1542 17.6339C12.2318 17.8917 12.3894 18.1174 12.6036 18.2776C12.8179 18.4378 13.0775 18.524 13.3439 18.5234H23.0585C23.299 18.5247 23.5347 18.4558 23.7374 18.3248C23.94 18.1939 24.1009 18.0065 24.2008 17.7852L27.8502 9.36692C27.9333 9.17516 27.9679 8.96545 27.9507 8.75677C27.9335 8.5481 27.8651 8.34706 27.7517 8.17187C27.6382 7.99669 27.4834 7.8529 27.3011 7.75353C27.1189 7.65416 26.915 7.60235 26.7079 7.6028L9.08875 7.58435Z" fill="#1D1818"/>
<path d="M13.4206 30.0307C12.7609 30.0307 12.116 29.8328 11.5675 29.4622C11.019 29.0915 10.5914 28.5647 10.339 27.9483C10.0865 27.3319 10.0205 26.6537 10.1492 25.9993C10.2779 25.345 10.5956 24.7439 11.062 24.2722C11.5285 23.8004 12.1229 23.4792 12.7699 23.349C13.4169 23.2188 14.0876 23.2856 14.6971 23.541C15.3065 23.7963 15.8275 24.2286 16.194 24.7833C16.5605 25.3381 16.7561 25.9903 16.7561 26.6574C16.7552 27.5518 16.4034 28.4092 15.7781 29.0416C15.1528 29.674 14.3049 30.0297 13.4206 30.0307V30.0307ZM13.4206 25.3805C13.1709 25.3805 12.9267 25.4554 12.7191 25.5957C12.5115 25.736 12.3496 25.9354 12.254 26.1687C12.1585 26.4021 12.1335 26.6588 12.1822 26.9065C12.2309 27.1542 12.3512 27.3818 12.5278 27.5604C12.7043 27.739 12.9293 27.8606 13.1743 27.9098C13.4192 27.9591 13.6731 27.9338 13.9038 27.8372C14.1345 27.7405 14.3317 27.5769 14.4705 27.3669C14.6092 27.1569 14.6833 26.91 14.6833 26.6574C14.6823 26.319 14.549 25.9948 14.3124 25.7555C14.0758 25.5163 13.7552 25.3814 13.4206 25.3805V25.3805Z" fill="#1D1818"/>
<path d="M22.7885 30.0307C22.1288 30.0307 21.4839 29.8328 20.9354 29.4622C20.3869 29.0915 19.9594 28.5647 19.7069 27.9483C19.4544 27.3319 19.3884 26.6537 19.5171 25.9993C19.6458 25.345 19.9635 24.7439 20.43 24.2722C20.8964 23.8004 21.4908 23.4792 22.1378 23.349C22.7848 23.2188 23.4555 23.2856 24.065 23.541C24.6745 23.7963 25.1954 24.2286 25.5619 24.7833C25.9284 25.3381 26.1241 25.9903 26.1241 26.6574C26.1231 27.5518 25.7714 28.4092 25.146 29.0416C24.5207 29.674 23.6729 30.0297 22.7885 30.0307V30.0307ZM22.7885 25.3805C22.5388 25.3805 22.2947 25.4554 22.087 25.5957C21.8794 25.736 21.7175 25.9354 21.622 26.1687C21.5264 26.4021 21.5014 26.6588 21.5501 26.9065C21.5988 27.1542 21.7191 27.3818 21.8957 27.5604C22.0723 27.739 22.2973 27.8606 22.5422 27.9098C22.7871 27.9591 23.041 27.9338 23.2717 27.8372C23.5025 27.7405 23.6997 27.5769 23.8384 27.3669C23.9772 27.1569 24.0512 26.91 24.0512 26.6574C24.0502 26.319 23.9169 25.9948 23.6803 25.7555C23.4437 25.5163 23.1231 25.3814 22.7885 25.3805V25.3805Z" fill="#1D1818"/>
</svg>
